# xmcd CD database file
#
# Track frame offsets:
#	150
#	26325
#	50140
#	76280
#
# Disc length: 1183 seconds
#
# Revision: 0
# Processed by: cddbd v1.5.1PL2 Copyright (c) Steve Scherf et al.
# Submitted via: CDex 1.51
#
DISCID=28049d04
DTITLE=FC Tokyo Supporters - Attack - FC Tokyo Unofficial Suporter's Song
DYEAR=2005
DGENRE=JPop
TTITLE0=東京メドレー 2003
TTITLE1=東京メドレー 2003 〜83.8 re-mix〜
TTITLE2=東京メドレー 2003 (カラオケ)
TTITLE3=You'll Never Walk Alone(カラオケ)
EXTD=YEAR: 2005
EXTT0=
EXTT1=
EXTT2=
EXTT3=
PLAYORDER=
